<svg xmlns="http://www.w3.org/2000/svg" xmlns:xlink="http://www.w3.org/1999/xlink" width="60" zoomAndPan="magnify" viewBox="0 0 45 44.999999" height="60" preserveAspectRatio="xMidYMid meet" version="1.0"><defs><g/><clipPath id="79ecca1f50"><path d="M 20 3.570312 L 33.75 3.570312 L 33.75 22.320312 L 20 22.320312 Z M 20 3.570312 " clip-rule="nonzero"/></clipPath><clipPath id="8e6a694f02"><path d="M 11.25 3.570312 L 33 3.570312 L 33 16 L 11.25 16 Z M 11.25 3.570312 " clip-rule="nonzero"/></clipPath><clipPath id="7d35e967e4"><path d="M 19 17 L 23 17 L 23 22.320312 L 19 22.320312 Z M 19 17 " clip-rule="nonzero"/></clipPath></defs><g fill="#f1005d" fill-opacity="1"><g transform="translate(5.540128, 31.600739)"><g><path d="M 6.109375 -9.65625 C 5.503906 -9.65625 4.890625 -8.910156 4.265625 -7.421875 L 3.140625 -4.5625 C 2.421875 -2.75 1.734375 -1.554688 1.078125 -0.984375 C 2.023438 -1.316406 3.128906 -1.535156 4.390625 -1.640625 C 4.566406 -1.660156 4.742188 -1.671875 4.921875 -1.671875 C 5.097656 -1.671875 5.28125 -1.640625 5.46875 -1.578125 C 5.664062 -1.523438 5.835938 -1.441406 5.984375 -1.328125 C 6.296875 -1.085938 6.453125 -0.742188 6.453125 -0.296875 C 6.453125 -0.0546875 6.363281 0.0625 6.1875 0.0625 C 6.082031 0.0625 5.984375 0.0390625 5.890625 0 C 5.796875 -0.0507812 5.6875 -0.0976562 5.5625 -0.140625 C 5.445312 -0.191406 5.3125 -0.238281 5.15625 -0.28125 C 4.789062 -0.375 4.414062 -0.421875 4.03125 -0.421875 C 3.644531 -0.421875 3.273438 -0.394531 2.921875 -0.34375 C 2.578125 -0.289062 2.25 -0.234375 1.9375 -0.171875 L 1.046875 0 C 0.785156 0.0390625 0.582031 0.0625 0.4375 0.0625 C 0.300781 0.0625 0.195312 0.0351562 0.125 -0.015625 C 0.0507812 -0.078125 -0.015625 -0.160156 -0.078125 -0.265625 C -0.210938 -0.472656 -0.28125 -0.640625 -0.28125 -0.765625 C -0.28125 -0.984375 -0.234375 -1.117188 -0.140625 -1.171875 C 0.253906 -1.378906 0.695312 -2.191406 1.1875 -3.609375 C 1.632812 -4.910156 1.941406 -5.78125 2.109375 -6.21875 C 2.273438 -6.664062 2.457031 -7.101562 2.65625 -7.53125 C 2.851562 -7.957031 3.066406 -8.351562 3.296875 -8.71875 C 3.535156 -9.09375 3.796875 -9.414062 4.078125 -9.6875 C 4.679688 -10.289062 5.347656 -10.59375 6.078125 -10.59375 C 6.585938 -10.59375 7.015625 -10.375 7.359375 -9.9375 C 7.679688 -9.53125 7.84375 -9.0625 7.84375 -8.53125 C 7.84375 -7.8125 7.570312 -7.066406 7.03125 -6.296875 C 6.71875 -5.847656 6.378906 -5.519531 6.015625 -5.3125 C 5.835938 -5.21875 5.675781 -5.171875 5.53125 -5.171875 C 5.394531 -5.171875 5.269531 -5.195312 5.15625 -5.25 C 5.050781 -5.3125 4.957031 -5.382812 4.875 -5.46875 C 4.707031 -5.644531 4.625 -5.800781 4.625 -5.9375 C 4.625 -6.082031 4.660156 -6.179688 4.734375 -6.234375 C 5.285156 -6.566406 5.75 -6.972656 6.125 -7.453125 C 6.539062 -7.960938 6.75 -8.457031 6.75 -8.9375 C 6.75 -9.414062 6.535156 -9.65625 6.109375 -9.65625 Z M 6.109375 -9.65625 "/></g></g></g><g fill="#f1005d" fill-opacity="1"><g transform="translate(12.747969, 31.600739)"><g><path d="M 6.828125 -1.34375 C 6.929688 -1.34375 6.984375 -1.289062 6.984375 -1.1875 C 6.984375 -0.789062 6.789062 -0.457031 6.40625 -0.1875 C 6.144531 -0.0195312 5.835938 0.0625 5.484375 0.0625 C 5.191406 0.0625 4.96875 -0.00390625 4.8125 -0.140625 C 4.53125 -0.378906 4.390625 -0.675781 4.390625 -1.03125 C 4.390625 -1.476562 4.582031 -2.164062 4.96875 -3.09375 C 4.269531 -2.144531 3.78125 -1.515625 3.5 -1.203125 C 3.21875 -0.898438 2.972656 -0.660156 2.765625 -0.484375 C 2.304688 -0.117188 1.894531 0.0625 1.53125 0.0625 C 0.96875 0.0625 0.59375 -0.175781 0.40625 -0.65625 C 0.351562 -0.8125 0.328125 -0.984375 0.328125 -1.171875 C 0.328125 -1.367188 0.359375 -1.582031 0.421875 -1.8125 C 0.484375 -2.050781 0.566406 -2.300781 0.671875 -2.5625 C 0.785156 -2.820312 0.898438 -3.085938 1.015625 -3.359375 L 1.390625 -4.171875 C 1.859375 -5.222656 2.03125 -5.84375 1.90625 -6.03125 C 1.851562 -6.125 1.753906 -6.210938 1.609375 -6.296875 C 1.546875 -6.328125 1.515625 -6.378906 1.515625 -6.453125 C 1.515625 -6.535156 1.546875 -6.613281 1.609375 -6.6875 C 1.679688 -6.757812 1.769531 -6.820312 1.875 -6.875 C 2.09375 -6.976562 2.3125 -7.03125 2.53125 -7.03125 C 2.757812 -7.03125 2.929688 -7.003906 3.046875 -6.953125 C 3.160156 -6.910156 3.253906 -6.851562 3.328125 -6.78125 C 3.484375 -6.632812 3.5625 -6.46875 3.5625 -6.28125 C 3.5625 -6.101562 3.53125 -5.898438 3.46875 -5.671875 C 3.40625 -5.453125 3.328125 -5.207031 3.234375 -4.9375 C 3.140625 -4.675781 3.035156 -4.410156 2.921875 -4.140625 C 2.609375 -3.398438 2.398438 -2.910156 2.296875 -2.671875 L 2.046875 -2.15625 C 1.898438 -1.84375 1.828125 -1.625 1.828125 -1.5 C 1.828125 -1.375 1.847656 -1.285156 1.890625 -1.234375 C 1.929688 -1.179688 2.003906 -1.15625 2.109375 -1.15625 C 2.210938 -1.15625 2.332031 -1.203125 2.46875 -1.296875 C 2.613281 -1.398438 2.769531 -1.535156 2.9375 -1.703125 C 3.101562 -1.867188 3.273438 -2.0625 3.453125 -2.28125 C 3.640625 -2.5 3.820312 -2.726562 4 -2.96875 C 4.332031 -3.425781 4.582031 -3.796875 4.75 -4.078125 C 5.707031 -5.773438 6.21875 -6.664062 6.28125 -6.75 C 6.425781 -6.9375 6.570312 -7.03125 6.71875 -7.03125 C 6.875 -7.03125 7.007812 -7.015625 7.125 -6.984375 C 7.238281 -6.953125 7.335938 -6.90625 7.421875 -6.84375 C 7.609375 -6.695312 7.664062 -6.554688 7.59375 -6.421875 C 6.488281 -4.109375 5.894531 -2.65625 5.8125 -2.0625 C 5.789062 -1.863281 5.78125 -1.722656 5.78125 -1.640625 C 5.78125 -1.296875 5.882812 -1.125 6.09375 -1.125 C 6.289062 -1.125 6.453125 -1.160156 6.578125 -1.234375 C 6.703125 -1.304688 6.785156 -1.34375 6.828125 -1.34375 Z M 6.828125 -1.34375 "/></g></g></g><g fill="#f1005d" fill-opacity="1"><g transform="translate(20.452204, 31.600739)"><g><path d="M 4.4375 -1.78125 C 4.570312 -1.78125 4.640625 -1.691406 4.640625 -1.515625 C 4.640625 -1.367188 4.59375 -1.222656 4.5 -1.078125 C 4.382812 -0.816406 4.140625 -0.566406 3.765625 -0.328125 C 3.347656 -0.0664062 2.929688 0.0625 2.515625 0.0625 C 1.785156 0.0625 1.320312 -0.257812 1.125 -0.90625 C 0.894531 -1.6875 1.242188 -3.332031 2.171875 -5.84375 C 1.648438 -5.882812 1.363281 -5.972656 1.3125 -6.109375 C 1.300781 -6.148438 1.296875 -6.191406 1.296875 -6.234375 C 1.296875 -6.285156 1.316406 -6.34375 1.359375 -6.40625 C 1.398438 -6.46875 1.457031 -6.53125 1.53125 -6.59375 C 1.6875 -6.726562 1.847656 -6.796875 2.015625 -6.796875 L 2.546875 -6.796875 C 3.035156 -7.941406 3.382812 -8.59375 3.59375 -8.75 C 3.695312 -8.820312 3.804688 -8.859375 3.921875 -8.859375 C 4.046875 -8.859375 4.148438 -8.84375 4.234375 -8.8125 C 4.316406 -8.78125 4.390625 -8.734375 4.453125 -8.671875 C 4.597656 -8.535156 4.671875 -8.382812 4.671875 -8.21875 C 4.671875 -8.125 4.640625 -8.019531 4.578125 -7.90625 L 4.078125 -6.8125 L 4.25 -6.8125 C 4.53125 -6.8125 4.753906 -6.8125 4.921875 -6.8125 C 4.921875 -6.8125 5.050781 -6.816406 5.3125 -6.828125 C 5.394531 -6.828125 5.5 -6.828125 5.625 -6.828125 C 5.757812 -6.828125 5.828125 -6.78125 5.828125 -6.6875 C 5.828125 -6.09375 5.117188 -5.796875 3.703125 -5.796875 L 3.65625 -5.796875 L 3.1875 -4.59375 C 2.664062 -3.175781 2.40625 -2.1875 2.40625 -1.625 C 2.40625 -1.46875 2.441406 -1.34375 2.515625 -1.25 C 2.585938 -1.164062 2.722656 -1.125 2.921875 -1.125 C 3.117188 -1.125 3.300781 -1.15625 3.46875 -1.21875 C 3.632812 -1.289062 3.773438 -1.367188 3.890625 -1.453125 C 4.015625 -1.535156 4.117188 -1.609375 4.203125 -1.671875 C 4.296875 -1.742188 4.375 -1.78125 4.4375 -1.78125 Z M 4.4375 -1.78125 "/></g></g></g><g fill="#f1005d" fill-opacity="1"><g transform="translate(25.450099, 31.600739)"><g><path d="M 1.109375 -0.453125 C 0.921875 -0.640625 0.769531 -0.867188 0.65625 -1.140625 C 0.550781 -1.421875 0.492188 -1.753906 0.484375 -2.140625 C 0.484375 -2.523438 0.53125 -2.910156 0.625 -3.296875 C 0.726562 -3.679688 0.867188 -4.054688 1.046875 -4.421875 C 1.222656 -4.785156 1.4375 -5.125 1.6875 -5.4375 C 1.945312 -5.757812 2.226562 -6.039062 2.53125 -6.28125 C 3.1875 -6.78125 3.875 -7.03125 4.59375 -7.03125 C 5.519531 -7.03125 6.148438 -6.625 6.484375 -5.8125 C 6.722656 -5.21875 6.738281 -4.5 6.53125 -3.65625 C 6.332031 -2.875 5.984375 -2.160156 5.484375 -1.515625 C 4.972656 -0.867188 4.378906 -0.410156 3.703125 -0.140625 C 3.359375 -0.00390625 3.019531 0.0625 2.6875 0.0625 C 2.351562 0.0625 2.054688 0.0195312 1.796875 -0.0625 C 1.535156 -0.144531 1.304688 -0.273438 1.109375 -0.453125 Z M 2.40625 -3.75 C 2.269531 -3.414062 2.160156 -3.070312 2.078125 -2.71875 C 2.003906 -2.375 1.96875 -2.039062 1.96875 -1.71875 C 1.976562 -1.40625 2.03125 -1.160156 2.125 -0.984375 C 2.21875 -0.804688 2.367188 -0.71875 2.578125 -0.71875 C 2.785156 -0.71875 2.988281 -0.785156 3.1875 -0.921875 C 3.394531 -1.066406 3.59375 -1.253906 3.78125 -1.484375 C 3.96875 -1.722656 4.144531 -2 4.3125 -2.3125 C 4.476562 -2.625 4.628906 -2.945312 4.765625 -3.28125 C 5.035156 -4.007812 5.164062 -4.65625 5.15625 -5.21875 C 5.15625 -5.71875 5.054688 -6.035156 4.859375 -6.171875 C 4.773438 -6.222656 4.660156 -6.25 4.515625 -6.25 C 4.367188 -6.25 4.195312 -6.179688 4 -6.046875 C 3.8125 -5.921875 3.617188 -5.742188 3.421875 -5.515625 C 3.234375 -5.285156 3.050781 -5.019531 2.875 -4.71875 C 2.695312 -4.414062 2.539062 -4.09375 2.40625 -3.75 Z M 2.40625 -3.75 "/></g></g></g><g fill="#f1005d" fill-opacity="1"><g transform="translate(32.610346, 31.600739)"><g><path d="M 5.390625 -5.75 C 5.253906 -5.75 5.054688 -5.613281 4.796875 -5.34375 C 4.535156 -5.070312 4.3125 -4.828125 4.125 -4.609375 L 3.546875 -3.921875 L 2.421875 -2.5 C 2.160156 -2 1.957031 -1.582031 1.8125 -1.25 L 1.4375 -0.46875 C 1.34375 -0.269531 1.257812 -0.128906 1.1875 -0.046875 C 1.125 0.0234375 1.03125 0.0625 0.90625 0.0625 C 0.789062 0.0625 0.675781 0.0390625 0.5625 0 C 0.445312 -0.0390625 0.347656 -0.09375 0.265625 -0.15625 C 0.0976562 -0.300781 0.015625 -0.460938 0.015625 -0.640625 C 0.015625 -0.703125 0.0625 -0.835938 0.15625 -1.046875 L 0.421875 -1.59375 C 0.503906 -1.75 0.597656 -1.957031 0.703125 -2.21875 L 1.09375 -3.140625 C 1.625 -4.484375 1.890625 -5.347656 1.890625 -5.734375 C 1.890625 -5.941406 1.820312 -6.097656 1.6875 -6.203125 L 1.546875 -6.296875 C 1.503906 -6.328125 1.484375 -6.378906 1.484375 -6.453125 C 1.484375 -6.535156 1.515625 -6.613281 1.578125 -6.6875 C 1.640625 -6.757812 1.71875 -6.820312 1.8125 -6.875 C 2.019531 -6.976562 2.222656 -7.03125 2.421875 -7.03125 C 2.628906 -7.03125 2.789062 -7.007812 2.90625 -6.96875 C 3.019531 -6.925781 3.113281 -6.863281 3.1875 -6.78125 C 3.363281 -6.625 3.453125 -6.457031 3.453125 -6.28125 C 3.453125 -6.113281 3.425781 -5.941406 3.375 -5.765625 C 3.332031 -5.585938 3.28125 -5.410156 3.21875 -5.234375 C 3.15625 -5.054688 3.085938 -4.878906 3.015625 -4.703125 C 2.941406 -4.535156 2.875 -4.390625 2.8125 -4.265625 L 2.671875 -3.96875 C 2.640625 -3.894531 2.632812 -3.875 2.65625 -3.90625 C 3.15625 -4.601562 3.484375 -5.050781 3.640625 -5.25 L 4.125 -5.8125 C 4.46875 -6.226562 4.738281 -6.5 4.9375 -6.625 C 5.34375 -6.894531 5.660156 -7.03125 5.890625 -7.03125 C 6.117188 -7.03125 6.3125 -7 6.46875 -6.9375 C 6.632812 -6.882812 6.773438 -6.804688 6.890625 -6.703125 C 7.140625 -6.460938 7.265625 -6.164062 7.265625 -5.8125 C 7.265625 -5.457031 7.179688 -5.082031 7.015625 -4.6875 C 6.859375 -4.300781 6.71875 -3.984375 6.59375 -3.734375 C 6.476562 -3.492188 6.363281 -3.25 6.25 -3 C 5.914062 -2.25 5.75 -1.703125 5.75 -1.359375 C 5.75 -1.203125 5.867188 -1.125 6.109375 -1.125 C 6.296875 -1.125 6.46875 -1.160156 6.625 -1.234375 C 6.78125 -1.316406 6.882812 -1.359375 6.9375 -1.359375 C 7.03125 -1.359375 7.078125 -1.3125 7.078125 -1.21875 C 7.078125 -0.820312 6.867188 -0.484375 6.453125 -0.203125 C 6.179688 -0.0234375 5.925781 0.0625 5.6875 0.0625 C 5.457031 0.0625 5.265625 0.0390625 5.109375 0 C 4.960938 -0.0507812 4.832031 -0.132812 4.71875 -0.25 C 4.445312 -0.488281 4.3125 -0.820312 4.3125 -1.25 C 4.3125 -1.78125 4.476562 -2.4375 4.8125 -3.21875 C 5.050781 -3.757812 5.222656 -4.128906 5.328125 -4.328125 L 5.546875 -4.8125 C 5.691406 -5.101562 5.765625 -5.332031 5.765625 -5.5 C 5.765625 -5.664062 5.640625 -5.75 5.390625 -5.75 Z M 5.390625 -5.75 "/></g></g></g><g fill="#0a0a0a" fill-opacity="1"><g transform="translate(3.211775, 38.003253)"><g><path d="M 2.578125 -5.953125 C 2.890625 -5.953125 3.195312 -5.90625 3.5 -5.8125 C 3.800781 -5.71875 4.023438 -5.625 4.171875 -5.53125 L 4.390625 -5.390625 L 3.84375 -4.328125 C 3.800781 -4.359375 3.742188 -4.394531 3.671875 -4.4375 C 3.597656 -4.488281 3.457031 -4.550781 3.25 -4.625 C 3.039062 -4.695312 2.847656 -4.734375 2.671875 -4.734375 C 2.441406 -4.734375 2.265625 -4.6875 2.140625 -4.59375 C 2.023438 -4.5 1.96875 -4.375 1.96875 -4.21875 C 1.96875 -4.132812 1.992188 -4.054688 2.046875 -3.984375 C 2.109375 -3.921875 2.207031 -3.847656 2.34375 -3.765625 C 2.488281 -3.691406 2.609375 -3.628906 2.703125 -3.578125 C 2.804688 -3.535156 2.96875 -3.46875 3.1875 -3.375 C 3.570312 -3.207031 3.894531 -2.984375 4.15625 -2.703125 C 4.425781 -2.429688 4.5625 -2.125 4.5625 -1.78125 C 4.5625 -1.445312 4.5 -1.15625 4.375 -0.90625 C 4.257812 -0.65625 4.09375 -0.457031 3.875 -0.3125 C 3.664062 -0.164062 3.429688 -0.0625 3.171875 0 C 2.921875 0.0703125 2.648438 0.109375 2.359375 0.109375 C 2.097656 0.109375 1.84375 0.0820312 1.59375 0.03125 C 1.351562 -0.0195312 1.148438 -0.0820312 0.984375 -0.15625 C 0.828125 -0.238281 0.679688 -0.316406 0.546875 -0.390625 C 0.410156 -0.472656 0.3125 -0.539062 0.25 -0.59375 L 0.15625 -0.671875 L 0.828125 -1.78125 C 0.878906 -1.738281 0.953125 -1.679688 1.046875 -1.609375 C 1.148438 -1.535156 1.328125 -1.4375 1.578125 -1.3125 C 1.835938 -1.1875 2.066406 -1.125 2.265625 -1.125 C 2.816406 -1.125 3.09375 -1.316406 3.09375 -1.703125 C 3.09375 -1.773438 3.070312 -1.847656 3.03125 -1.921875 C 3 -1.992188 2.929688 -2.0625 2.828125 -2.125 C 2.722656 -2.195312 2.628906 -2.25 2.546875 -2.28125 C 2.472656 -2.320312 2.347656 -2.382812 2.171875 -2.46875 C 1.992188 -2.550781 1.863281 -2.613281 1.78125 -2.65625 C 1.425781 -2.832031 1.148438 -3.050781 0.953125 -3.3125 C 0.765625 -3.570312 0.671875 -3.851562 0.671875 -4.15625 C 0.671875 -4.6875 0.863281 -5.117188 1.25 -5.453125 C 1.632812 -5.785156 2.078125 -5.953125 2.578125 -5.953125 Z M 2.578125 -5.953125 "/></g></g></g><g fill="#0a0a0a" fill-opacity="1"><g transform="translate(7.81316, 38.003253)"><g><path d="M 0.0625 -4.671875 L 0.0625 -5.84375 L 4.15625 -5.84375 L 4.15625 -4.671875 L 2.78125 -4.671875 L 2.78125 0 L 1.4375 0 L 1.4375 -4.671875 Z M 0.0625 -4.671875 "/></g></g></g><g fill="#0a0a0a" fill-opacity="1"><g transform="translate(11.876504, 38.003253)"><g><path d="M 3.390625 -5.84375 L 5.75 0 L 4.3125 0 L 3.890625 -1.171875 L 1.65625 -1.171875 L 1.234375 0 L -0.203125 0 L 2.15625 -5.84375 Z M 3.4375 -2.328125 L 2.78125 -4.03125 L 2.765625 -4.03125 L 2.109375 -2.328125 Z M 3.4375 -2.328125 "/></g></g></g><g fill="#0a0a0a" fill-opacity="1"><g transform="translate(17.270781, 38.003253)"><g><path d="M 0.421875 -5.84375 L 2.515625 -5.84375 C 3.078125 -5.84375 3.535156 -5.691406 3.890625 -5.390625 C 4.242188 -5.085938 4.421875 -4.660156 4.421875 -4.109375 C 4.421875 -3.679688 4.3125 -3.320312 4.09375 -3.03125 C 3.875 -2.738281 3.582031 -2.53125 3.21875 -2.40625 L 5.234375 0 L 3.546875 0 L 1.75 -2.3125 L 1.75 0 L 0.421875 0 Z M 1.75 -3.25 L 1.90625 -3.25 C 2.03125 -3.25 2.132812 -3.25 2.21875 -3.25 C 2.300781 -3.257812 2.394531 -3.273438 2.5 -3.296875 C 2.613281 -3.328125 2.703125 -3.367188 2.765625 -3.421875 C 2.835938 -3.472656 2.894531 -3.546875 2.9375 -3.640625 C 2.988281 -3.742188 3.015625 -3.863281 3.015625 -4 C 3.015625 -4.144531 2.988281 -4.265625 2.9375 -4.359375 C 2.894531 -4.460938 2.835938 -4.539062 2.765625 -4.59375 C 2.703125 -4.644531 2.613281 -4.6875 2.5 -4.71875 C 2.394531 -4.75 2.300781 -4.765625 2.21875 -4.765625 C 2.132812 -4.773438 2.03125 -4.78125 1.90625 -4.78125 L 1.75 -4.78125 Z M 1.75 -3.25 "/></g></g></g><g fill="#0a0a0a" fill-opacity="1"><g transform="translate(22.183653, 38.003253)"><g><path d="M 0.0625 -4.671875 L 0.0625 -5.84375 L 4.15625 -5.84375 L 4.15625 -4.671875 L 2.78125 -4.671875 L 2.78125 0 L 1.4375 0 L 1.4375 -4.671875 Z M 0.0625 -4.671875 "/></g></g></g><g fill="#0a0a0a" fill-opacity="1"><g transform="translate(26.246997, 38.003253)"><g><path d="M 4.90625 -5.84375 L 4.90625 -2.078125 C 4.90625 -1.359375 4.710938 -0.8125 4.328125 -0.4375 C 3.941406 -0.0703125 3.375 0.109375 2.625 0.109375 C 1.882812 0.109375 1.320312 -0.0703125 0.9375 -0.4375 C 0.550781 -0.8125 0.359375 -1.359375 0.359375 -2.078125 L 0.359375 -5.84375 L 1.6875 -5.84375 L 1.6875 -2.46875 C 1.6875 -1.988281 1.757812 -1.65625 1.90625 -1.46875 C 2.050781 -1.289062 2.289062 -1.203125 2.625 -1.203125 C 2.96875 -1.203125 3.210938 -1.289062 3.359375 -1.46875 C 3.503906 -1.65625 3.578125 -1.988281 3.578125 -2.46875 L 3.578125 -5.84375 Z M 4.90625 -5.84375 "/></g></g></g><g fill="#0a0a0a" fill-opacity="1"><g transform="translate(31.358092, 38.003253)"><g><path d="M 0.421875 -5.84375 L 2.5625 -5.84375 C 3.15625 -5.84375 3.632812 -5.6875 4 -5.375 C 4.363281 -5.070312 4.546875 -4.625 4.546875 -4.03125 C 4.546875 -3.445312 4.359375 -2.988281 3.984375 -2.65625 C 3.617188 -2.332031 3.144531 -2.171875 2.5625 -2.171875 L 1.75 -2.171875 L 1.75 0 L 0.421875 0 Z M 1.75 -3.234375 L 2.125 -3.234375 C 2.425781 -3.234375 2.671875 -3.289062 2.859375 -3.40625 C 3.054688 -3.53125 3.15625 -3.726562 3.15625 -4 C 3.15625 -4.28125 3.054688 -4.476562 2.859375 -4.59375 C 2.671875 -4.71875 2.425781 -4.78125 2.125 -4.78125 L 1.75 -4.78125 Z M 1.75 -3.234375 "/></g></g></g><g fill="#0a0a0a" fill-opacity="1"><g transform="translate(35.916993, 38.003253)"><g><path d="M 2.578125 -5.953125 C 2.890625 -5.953125 3.195312 -5.90625 3.5 -5.8125 C 3.800781 -5.71875 4.023438 -5.625 4.171875 -5.53125 L 4.390625 -5.390625 L 3.84375 -4.328125 C 3.800781 -4.359375 3.742188 -4.394531 3.671875 -4.4375 C 3.597656 -4.488281 3.457031 -4.550781 3.25 -4.625 C 3.039062 -4.695312 2.847656 -4.734375 2.671875 -4.734375 C 2.441406 -4.734375 2.265625 -4.6875 2.140625 -4.59375 C 2.023438 -4.5 1.96875 -4.375 1.96875 -4.21875 C 1.96875 -4.132812 1.992188 -4.054688 2.046875 -3.984375 C 2.109375 -3.921875 2.207031 -3.847656 2.34375 -3.765625 C 2.488281 -3.691406 2.609375 -3.628906 2.703125 -3.578125 C 2.804688 -3.535156 2.96875 -3.46875 3.1875 -3.375 C 3.570312 -3.207031 3.894531 -2.984375 4.15625 -2.703125 C 4.425781 -2.429688 4.5625 -2.125 4.5625 -1.78125 C 4.5625 -1.445312 4.5 -1.15625 4.375 -0.90625 C 4.257812 -0.65625 4.09375 -0.457031 3.875 -0.3125 C 3.664062 -0.164062 3.429688 -0.0625 3.171875 0 C 2.921875 0.0703125 2.648438 0.109375 2.359375 0.109375 C 2.097656 0.109375 1.84375 0.0820312 1.59375 0.03125 C 1.351562 -0.0195312 1.148438 -0.0820312 0.984375 -0.15625 C 0.828125 -0.238281 0.679688 -0.316406 0.546875 -0.390625 C 0.410156 -0.472656 0.3125 -0.539062 0.25 -0.59375 L 0.15625 -0.671875 L 0.828125 -1.78125 C 0.878906 -1.738281 0.953125 -1.679688 1.046875 -1.609375 C 1.148438 -1.535156 1.328125 -1.4375 1.578125 -1.3125 C 1.835938 -1.1875 2.066406 -1.125 2.265625 -1.125 C 2.816406 -1.125 3.09375 -1.316406 3.09375 -1.703125 C 3.09375 -1.773438 3.070312 -1.847656 3.03125 -1.921875 C 3 -1.992188 2.929688 -2.0625 2.828125 -2.125 C 2.722656 -2.195312 2.628906 -2.25 2.546875 -2.28125 C 2.472656 -2.320312 2.347656 -2.382812 2.171875 -2.46875 C 1.992188 -2.550781 1.863281 -2.613281 1.78125 -2.65625 C 1.425781 -2.832031 1.148438 -3.050781 0.953125 -3.3125 C 0.765625 -3.570312 0.671875 -3.851562 0.671875 -4.15625 C 0.671875 -4.6875 0.863281 -5.117188 1.25 -5.453125 C 1.632812 -5.785156 2.078125 -5.953125 2.578125 -5.953125 Z M 2.578125 -5.953125 "/></g></g></g><g clip-path="url(#79ecca1f50)"><path fill="#f1005d" d="M 28.675781 22.472656 C 26.09375 20.722656 23.582031 19.019531 20.984375 17.257812 C 25.21875 12.6875 29.425781 8.140625 33.632812 3.597656 C 33.671875 3.617188 33.710938 3.636719 33.75 3.652344 C 32.066406 9.902344 30.378906 16.152344 28.675781 22.472656 " fill-opacity="1" fill-rule="nonzero"/></g><g clip-path="url(#8e6a694f02)"><path fill="#f1005d" d="M 32.023438 3.789062 C 30.660156 4.863281 29.296875 5.9375 27.933594 7.011719 C 24.648438 9.59375 21.355469 12.167969 18.082031 14.757812 C 17.707031 15.054688 17.40625 15.144531 16.945312 14.941406 C 15.226562 14.195312 13.492188 13.488281 11.765625 12.765625 C 11.628906 12.707031 11.5 12.632812 11.25 12.503906 C 18.222656 9.53125 25.089844 6.601562 31.957031 3.671875 C 31.980469 3.710938 32 3.75 32.023438 3.789062 " fill-opacity="1" fill-rule="nonzero"/></g><path fill="#f1005d" d="M 31.085938 5.414062 C 30.980469 5.542969 30.882812 5.679688 30.769531 5.804688 C 27.367188 9.476562 23.960938 13.148438 20.570312 16.832031 C 20.347656 17.074219 20.191406 17.414062 20.097656 17.734375 C 19.714844 19.011719 19.363281 20.300781 18.882812 21.582031 C 18.714844 20.585938 18.542969 19.585938 18.375 18.589844 C 18.242188 17.796875 18.132812 17.003906 17.984375 16.214844 C 17.90625 15.816406 18.011719 15.5625 18.339844 15.304688 C 22.496094 12.058594 26.640625 8.800781 30.789062 5.542969 C 30.871094 5.480469 30.949219 5.421875 31.03125 5.359375 C 31.050781 5.378906 31.066406 5.394531 31.085938 5.414062 " fill-opacity="1" fill-rule="nonzero"/><g clip-path="url(#7d35e967e4)"><path fill="#f1005d" d="M 22.453125 18.988281 C 21.5 20.03125 20.570312 21.046875 19.640625 22.058594 C 19.601562 22.039062 19.5625 22.019531 19.527344 22 C 19.90625 20.640625 20.285156 19.28125 20.695312 17.808594 C 21.363281 18.257812 21.980469 18.671875 22.453125 18.988281 " fill-opacity="1" fill-rule="nonzero"/></g></svg>