<svg xmlns="http://www.w3.org/2000/svg" xmlns:xlink="http://www.w3.org/1999/xlink" width="120" zoomAndPan="magnify" viewBox="0 0 90 37.5" height="50" preserveAspectRatio="xMidYMid meet" version="1.0"><defs><g/><clipPath id="2e384eced4"><path d="M 17 7 L 34.503906 7 L 34.503906 32 L 17 32 Z M 17 7 " clip-rule="nonzero"/></clipPath><clipPath id="c0bd155689"><path d="M 4.898438 7 L 33 7 L 33 23 L 4.898438 23 Z M 4.898438 7 " clip-rule="nonzero"/></clipPath></defs><g fill="#f1005d" fill-opacity="1"><g transform="translate(34.436265, 21.192148)"><g><path d="M 8.46875 -13.375 C 7.625 -13.375 6.773438 -12.347656 5.921875 -10.296875 L 4.359375 -6.328125 C 3.359375 -3.804688 2.40625 -2.148438 1.5 -1.359375 C 2.800781 -1.816406 4.332031 -2.125 6.09375 -2.28125 C 6.34375 -2.300781 6.585938 -2.3125 6.828125 -2.3125 C 7.066406 -2.3125 7.320312 -2.269531 7.59375 -2.1875 C 7.863281 -2.113281 8.097656 -2 8.296875 -1.84375 C 8.734375 -1.507812 8.953125 -1.035156 8.953125 -0.421875 C 8.953125 -0.078125 8.828125 0.09375 8.578125 0.09375 C 8.429688 0.09375 8.289062 0.0625 8.15625 0 C 8.03125 -0.0703125 7.882812 -0.140625 7.71875 -0.203125 C 7.550781 -0.265625 7.359375 -0.328125 7.140625 -0.390625 C 6.640625 -0.515625 6.125 -0.578125 5.59375 -0.578125 C 5.0625 -0.578125 4.550781 -0.539062 4.0625 -0.46875 C 3.570312 -0.40625 3.109375 -0.332031 2.671875 -0.25 L 1.453125 -0.015625 C 1.085938 0.0546875 0.804688 0.09375 0.609375 0.09375 C 0.421875 0.09375 0.273438 0.0507812 0.171875 -0.03125 C 0.0664062 -0.113281 -0.0234375 -0.222656 -0.109375 -0.359375 C -0.296875 -0.648438 -0.390625 -0.882812 -0.390625 -1.0625 C -0.390625 -1.351562 -0.320312 -1.539062 -0.1875 -1.625 C 0.351562 -1.914062 0.960938 -3.039062 1.640625 -5 C 2.265625 -6.800781 2.691406 -8.007812 2.921875 -8.625 C 3.148438 -9.238281 3.398438 -9.835938 3.671875 -10.421875 C 3.953125 -11.015625 4.253906 -11.566406 4.578125 -12.078125 C 4.898438 -12.597656 5.257812 -13.050781 5.65625 -13.4375 C 6.488281 -14.269531 7.410156 -14.6875 8.421875 -14.6875 C 9.128906 -14.6875 9.722656 -14.378906 10.203125 -13.765625 C 10.640625 -13.203125 10.859375 -12.554688 10.859375 -11.828125 C 10.859375 -10.828125 10.488281 -9.789062 9.75 -8.71875 C 9.320312 -8.101562 8.851562 -7.65625 8.34375 -7.375 C 8.101562 -7.238281 7.882812 -7.171875 7.6875 -7.171875 C 7.488281 -7.171875 7.3125 -7.207031 7.15625 -7.28125 C 7.007812 -7.363281 6.878906 -7.460938 6.765625 -7.578125 C 6.535156 -7.816406 6.421875 -8.035156 6.421875 -8.234375 C 6.421875 -8.429688 6.46875 -8.5625 6.5625 -8.625 C 7.320312 -9.101562 7.96875 -9.671875 8.5 -10.328125 C 9.070312 -11.035156 9.359375 -11.71875 9.359375 -12.375 C 9.359375 -13.039062 9.0625 -13.375 8.46875 -13.375 Z M 8.46875 -13.375 "/></g></g></g><g fill="#f1005d" fill-opacity="1"><g transform="translate(44.421008, 21.192148)"><g><path d="M 9.46875 -1.859375 C 9.613281 -1.859375 9.6875 -1.785156 9.6875 -1.640625 C 9.6875 -1.085938 9.414062 -0.628906 8.875 -0.265625 C 8.507812 -0.0234375 8.082031 0.09375 7.59375 0.09375 C 7.1875 0.09375 6.878906 0 6.671875 -0.1875 C 6.285156 -0.53125 6.09375 -0.945312 6.09375 -1.4375 C 6.09375 -2.050781 6.351562 -3 6.875 -4.28125 C 5.90625 -2.976562 5.226562 -2.109375 4.84375 -1.671875 C 4.457031 -1.242188 4.117188 -0.910156 3.828125 -0.671875 C 3.203125 -0.160156 2.632812 0.09375 2.125 0.09375 C 1.34375 0.09375 0.820312 -0.238281 0.5625 -0.90625 C 0.488281 -1.113281 0.453125 -1.351562 0.453125 -1.625 C 0.453125 -1.894531 0.492188 -2.191406 0.578125 -2.515625 C 0.671875 -2.847656 0.789062 -3.191406 0.9375 -3.546875 C 1.082031 -3.910156 1.238281 -4.28125 1.40625 -4.65625 L 1.921875 -5.78125 C 2.578125 -7.238281 2.816406 -8.097656 2.640625 -8.359375 C 2.566406 -8.484375 2.425781 -8.601562 2.21875 -8.71875 C 2.144531 -8.769531 2.109375 -8.847656 2.109375 -8.953125 C 2.109375 -9.066406 2.15625 -9.171875 2.25 -9.265625 C 2.34375 -9.367188 2.457031 -9.457031 2.59375 -9.53125 C 2.90625 -9.675781 3.210938 -9.75 3.515625 -9.75 C 3.828125 -9.75 4.0625 -9.710938 4.21875 -9.640625 C 4.382812 -9.578125 4.515625 -9.5 4.609375 -9.40625 C 4.816406 -9.195312 4.921875 -8.96875 4.921875 -8.71875 C 4.921875 -8.46875 4.878906 -8.1875 4.796875 -7.875 C 4.722656 -7.5625 4.617188 -7.222656 4.484375 -6.859375 C 4.347656 -6.492188 4.203125 -6.117188 4.046875 -5.734375 C 3.617188 -4.710938 3.328125 -4.039062 3.171875 -3.71875 L 2.828125 -2.984375 C 2.628906 -2.554688 2.53125 -2.253906 2.53125 -2.078125 C 2.53125 -1.898438 2.554688 -1.773438 2.609375 -1.703125 C 2.671875 -1.628906 2.773438 -1.59375 2.921875 -1.59375 C 3.066406 -1.59375 3.238281 -1.660156 3.4375 -1.796875 C 3.632812 -1.929688 3.847656 -2.113281 4.078125 -2.34375 C 4.304688 -2.582031 4.546875 -2.851562 4.796875 -3.15625 C 5.054688 -3.46875 5.304688 -3.785156 5.546875 -4.109375 C 6.015625 -4.742188 6.359375 -5.257812 6.578125 -5.65625 C 7.910156 -8.007812 8.617188 -9.238281 8.703125 -9.34375 C 8.898438 -9.613281 9.101562 -9.75 9.3125 -9.75 C 9.53125 -9.75 9.71875 -9.722656 9.875 -9.671875 C 10.03125 -9.628906 10.164062 -9.566406 10.28125 -9.484375 C 10.539062 -9.285156 10.625 -9.085938 10.53125 -8.890625 C 9 -5.691406 8.175781 -3.679688 8.0625 -2.859375 C 8.03125 -2.578125 8.015625 -2.382812 8.015625 -2.28125 C 8.015625 -1.800781 8.15625 -1.5625 8.4375 -1.5625 C 8.707031 -1.5625 8.929688 -1.609375 9.109375 -1.703125 C 9.285156 -1.804688 9.40625 -1.859375 9.46875 -1.859375 Z M 9.46875 -1.859375 "/></g></g></g><g fill="#f1005d" fill-opacity="1"><g transform="translate(55.093387, 21.192148)"><g><path d="M 6.171875 -2.46875 C 6.347656 -2.46875 6.4375 -2.34375 6.4375 -2.09375 C 6.4375 -1.894531 6.375 -1.695312 6.25 -1.5 C 6.082031 -1.132812 5.742188 -0.789062 5.234375 -0.46875 C 4.648438 -0.09375 4.066406 0.09375 3.484375 0.09375 C 2.472656 0.09375 1.832031 -0.359375 1.5625 -1.265625 C 1.25 -2.335938 1.734375 -4.613281 3.015625 -8.09375 C 2.285156 -8.15625 1.890625 -8.28125 1.828125 -8.46875 C 1.804688 -8.53125 1.796875 -8.59375 1.796875 -8.65625 C 1.796875 -8.71875 1.828125 -8.789062 1.890625 -8.875 C 1.953125 -8.96875 2.03125 -9.054688 2.125 -9.140625 C 2.34375 -9.316406 2.566406 -9.40625 2.796875 -9.40625 L 3.53125 -9.40625 C 4.21875 -11 4.703125 -11.90625 4.984375 -12.125 C 5.128906 -12.226562 5.285156 -12.28125 5.453125 -12.28125 C 5.617188 -12.28125 5.757812 -12.253906 5.875 -12.203125 C 5.988281 -12.160156 6.085938 -12.097656 6.171875 -12.015625 C 6.378906 -11.828125 6.484375 -11.617188 6.484375 -11.390625 C 6.484375 -11.265625 6.441406 -11.117188 6.359375 -10.953125 L 5.671875 -9.4375 L 5.890625 -9.4375 C 6.285156 -9.4375 6.597656 -9.441406 6.828125 -9.453125 C 6.828125 -9.453125 7.007812 -9.453125 7.375 -9.453125 C 7.488281 -9.460938 7.632812 -9.46875 7.8125 -9.46875 C 8 -9.46875 8.09375 -9.398438 8.09375 -9.265625 C 8.09375 -8.441406 7.109375 -8.03125 5.140625 -8.03125 L 5.078125 -8.03125 L 4.4375 -6.375 C 3.707031 -4.414062 3.34375 -3.039062 3.34375 -2.25 C 3.34375 -2.03125 3.394531 -1.859375 3.5 -1.734375 C 3.601562 -1.609375 3.789062 -1.546875 4.0625 -1.546875 C 4.34375 -1.546875 4.59375 -1.59375 4.8125 -1.6875 C 5.039062 -1.789062 5.238281 -1.898438 5.40625 -2.015625 C 5.582031 -2.128906 5.726562 -2.234375 5.84375 -2.328125 C 5.96875 -2.421875 6.078125 -2.46875 6.171875 -2.46875 Z M 6.171875 -2.46875 "/></g></g></g><g fill="#f1005d" fill-opacity="1"><g transform="translate(62.016778, 21.192148)"><g><path d="M 1.5625 -0.640625 C 1.300781 -0.890625 1.09375 -1.207031 0.9375 -1.59375 C 0.789062 -1.976562 0.710938 -2.4375 0.703125 -2.96875 C 0.691406 -3.5 0.753906 -4.03125 0.890625 -4.5625 C 1.023438 -5.101562 1.21875 -5.625 1.46875 -6.125 C 1.71875 -6.632812 2.015625 -7.109375 2.359375 -7.546875 C 2.710938 -7.984375 3.097656 -8.367188 3.515625 -8.703125 C 4.429688 -9.398438 5.382812 -9.75 6.375 -9.75 C 7.664062 -9.75 8.539062 -9.179688 9 -8.046875 C 9.332031 -7.222656 9.351562 -6.226562 9.0625 -5.0625 C 8.800781 -3.988281 8.316406 -3 7.609375 -2.09375 C 6.910156 -1.195312 6.085938 -0.5625 5.140625 -0.1875 C 4.660156 0 4.191406 0.09375 3.734375 0.09375 C 3.273438 0.09375 2.863281 0.0351562 2.5 -0.078125 C 2.132812 -0.203125 1.820312 -0.390625 1.5625 -0.640625 Z M 3.359375 -5.203125 C 3.171875 -4.742188 3.019531 -4.269531 2.90625 -3.78125 C 2.800781 -3.289062 2.75 -2.828125 2.75 -2.390625 C 2.757812 -1.953125 2.828125 -1.609375 2.953125 -1.359375 C 3.085938 -1.109375 3.296875 -0.984375 3.578125 -0.984375 C 3.867188 -0.984375 4.15625 -1.082031 4.4375 -1.28125 C 4.71875 -1.476562 4.988281 -1.738281 5.25 -2.0625 C 5.519531 -2.394531 5.769531 -2.773438 6 -3.203125 C 6.226562 -3.628906 6.429688 -4.078125 6.609375 -4.546875 C 6.992188 -5.554688 7.179688 -6.453125 7.171875 -7.234375 C 7.171875 -7.921875 7.03125 -8.363281 6.75 -8.5625 C 6.632812 -8.632812 6.472656 -8.671875 6.265625 -8.671875 C 6.066406 -8.671875 5.832031 -8.578125 5.5625 -8.390625 C 5.300781 -8.203125 5.035156 -7.953125 4.765625 -7.640625 C 4.503906 -7.328125 4.25 -6.957031 4 -6.53125 C 3.757812 -6.113281 3.546875 -5.671875 3.359375 -5.203125 Z M 3.359375 -5.203125 "/></g></g></g><g fill="#f1005d" fill-opacity="1"><g transform="translate(71.935591, 21.192148)"><g><path d="M 7.46875 -7.96875 C 7.28125 -7.96875 7.003906 -7.78125 6.640625 -7.40625 C 6.285156 -7.03125 5.972656 -6.691406 5.703125 -6.390625 L 4.90625 -5.421875 L 3.359375 -3.453125 C 2.992188 -2.765625 2.707031 -2.191406 2.5 -1.734375 L 2 -0.640625 C 1.863281 -0.367188 1.742188 -0.175781 1.640625 -0.0625 C 1.546875 0.0390625 1.414062 0.09375 1.25 0.09375 C 1.09375 0.09375 0.9375 0.0625 0.78125 0 C 0.625 -0.0507812 0.488281 -0.125 0.375 -0.21875 C 0.132812 -0.425781 0.015625 -0.648438 0.015625 -0.890625 C 0.015625 -0.984375 0.0820312 -1.164062 0.21875 -1.4375 L 0.578125 -2.203125 C 0.691406 -2.429688 0.828125 -2.722656 0.984375 -3.078125 L 1.5 -4.359375 C 2.25 -6.210938 2.625 -7.410156 2.625 -7.953125 C 2.625 -8.242188 2.53125 -8.457031 2.34375 -8.59375 L 2.140625 -8.71875 C 2.078125 -8.769531 2.046875 -8.847656 2.046875 -8.953125 C 2.046875 -9.066406 2.085938 -9.171875 2.171875 -9.265625 C 2.265625 -9.367188 2.378906 -9.457031 2.515625 -9.53125 C 2.796875 -9.675781 3.078125 -9.75 3.359375 -9.75 C 3.648438 -9.75 3.875 -9.71875 4.03125 -9.65625 C 4.1875 -9.59375 4.316406 -9.507812 4.421875 -9.40625 C 4.660156 -9.1875 4.78125 -8.957031 4.78125 -8.71875 C 4.78125 -8.476562 4.75 -8.234375 4.6875 -7.984375 C 4.625 -7.742188 4.546875 -7.5 4.453125 -7.25 C 4.367188 -7.007812 4.273438 -6.769531 4.171875 -6.53125 C 4.066406 -6.289062 3.976562 -6.082031 3.90625 -5.90625 L 3.71875 -5.5 C 3.664062 -5.40625 3.648438 -5.375 3.671875 -5.40625 C 4.367188 -6.375 4.828125 -7 5.046875 -7.28125 L 5.703125 -8.0625 C 6.191406 -8.625 6.570312 -9 6.84375 -9.1875 C 7.40625 -9.5625 7.847656 -9.75 8.171875 -9.75 C 8.492188 -9.75 8.765625 -9.707031 8.984375 -9.625 C 9.203125 -9.539062 9.390625 -9.425781 9.546875 -9.28125 C 9.898438 -8.957031 10.078125 -8.546875 10.078125 -8.046875 C 10.078125 -7.554688 9.960938 -7.039062 9.734375 -6.5 C 9.503906 -5.957031 9.304688 -5.519531 9.140625 -5.1875 C 8.972656 -4.851562 8.816406 -4.515625 8.671875 -4.171875 C 8.203125 -3.117188 7.96875 -2.351562 7.96875 -1.875 C 7.96875 -1.65625 8.132812 -1.546875 8.46875 -1.546875 C 8.726562 -1.546875 8.96875 -1.601562 9.1875 -1.71875 C 9.40625 -1.832031 9.546875 -1.890625 9.609375 -1.890625 C 9.742188 -1.890625 9.8125 -1.828125 9.8125 -1.703125 C 9.8125 -1.140625 9.523438 -0.671875 8.953125 -0.296875 C 8.566406 -0.0351562 8.210938 0.09375 7.890625 0.09375 C 7.578125 0.09375 7.3125 0.0625 7.09375 0 C 6.882812 -0.0703125 6.703125 -0.1875 6.546875 -0.34375 C 6.171875 -0.675781 5.984375 -1.140625 5.984375 -1.734375 C 5.984375 -2.460938 6.210938 -3.375 6.671875 -4.46875 C 7.003906 -5.21875 7.238281 -5.726562 7.375 -6 L 7.703125 -6.671875 C 7.890625 -7.078125 7.984375 -7.394531 7.984375 -7.625 C 7.984375 -7.851562 7.8125 -7.96875 7.46875 -7.96875 Z M 7.46875 -7.96875 "/></g></g></g><g fill="#00bf63" fill-opacity="1"><g transform="translate(31.371068, 30.0613)"><g><path d="M 3.578125 -8.25 C 4.015625 -8.25 4.441406 -8.179688 4.859375 -8.046875 C 5.273438 -7.921875 5.585938 -7.796875 5.796875 -7.671875 L 6.078125 -7.484375 L 5.34375 -6 C 5.28125 -6.039062 5.195312 -6.09375 5.09375 -6.15625 C 4.988281 -6.21875 4.789062 -6.300781 4.5 -6.40625 C 4.21875 -6.507812 3.953125 -6.5625 3.703125 -6.5625 C 3.390625 -6.5625 3.148438 -6.492188 2.984375 -6.359375 C 2.816406 -6.234375 2.734375 -6.0625 2.734375 -5.84375 C 2.734375 -5.726562 2.769531 -5.625 2.84375 -5.53125 C 2.925781 -5.4375 3.0625 -5.332031 3.25 -5.21875 C 3.445312 -5.113281 3.613281 -5.023438 3.75 -4.953125 C 3.894531 -4.890625 4.117188 -4.796875 4.421875 -4.671875 C 4.941406 -4.453125 5.382812 -4.148438 5.75 -3.765625 C 6.125 -3.378906 6.3125 -2.945312 6.3125 -2.46875 C 6.3125 -2 6.226562 -1.585938 6.0625 -1.234375 C 5.894531 -0.890625 5.664062 -0.617188 5.375 -0.421875 C 5.09375 -0.234375 4.773438 -0.09375 4.421875 0 C 4.066406 0.09375 3.679688 0.140625 3.265625 0.140625 C 2.910156 0.140625 2.5625 0.101562 2.21875 0.03125 C 1.882812 -0.03125 1.601562 -0.113281 1.375 -0.21875 C 1.144531 -0.332031 0.9375 -0.441406 0.75 -0.546875 C 0.570312 -0.648438 0.441406 -0.738281 0.359375 -0.8125 L 0.21875 -0.921875 L 1.140625 -2.46875 C 1.222656 -2.40625 1.332031 -2.320312 1.46875 -2.21875 C 1.601562 -2.125 1.847656 -1.988281 2.203125 -1.8125 C 2.554688 -1.644531 2.863281 -1.5625 3.125 -1.5625 C 3.90625 -1.5625 4.296875 -1.828125 4.296875 -2.359375 C 4.296875 -2.460938 4.265625 -2.5625 4.203125 -2.65625 C 4.148438 -2.757812 4.050781 -2.859375 3.90625 -2.953125 C 3.769531 -3.046875 3.648438 -3.117188 3.546875 -3.171875 C 3.441406 -3.222656 3.265625 -3.304688 3.015625 -3.421875 C 2.773438 -3.535156 2.59375 -3.625 2.46875 -3.6875 C 1.976562 -3.925781 1.597656 -4.226562 1.328125 -4.59375 C 1.066406 -4.957031 0.9375 -5.347656 0.9375 -5.765625 C 0.9375 -6.492188 1.203125 -7.085938 1.734375 -7.546875 C 2.273438 -8.015625 2.890625 -8.25 3.578125 -8.25 Z M 3.578125 -8.25 "/></g></g></g><g fill="#00bf63" fill-opacity="1"><g transform="translate(37.745189, 30.0613)"><g><path d="M 0.078125 -6.46875 L 0.078125 -8.09375 L 5.765625 -8.09375 L 5.765625 -6.46875 L 3.84375 -6.46875 L 3.84375 0 L 2 0 L 2 -6.46875 Z M 0.078125 -6.46875 "/></g></g></g><g fill="#00bf63" fill-opacity="1"><g transform="translate(43.373983, 30.0613)"><g><path d="M 4.703125 -8.09375 L 7.96875 0 L 5.984375 0 L 5.390625 -1.625 L 2.3125 -1.625 L 1.703125 0 L -0.28125 0 L 3 -8.09375 Z M 4.765625 -3.234375 L 3.859375 -5.59375 L 3.84375 -5.59375 L 2.9375 -3.234375 Z M 4.765625 -3.234375 "/></g></g></g><g fill="#00bf63" fill-opacity="1"><g transform="translate(50.846466, 30.0613)"><g><path d="M 0.59375 -8.09375 L 3.484375 -8.09375 C 4.265625 -8.09375 4.898438 -7.882812 5.390625 -7.46875 C 5.878906 -7.050781 6.125 -6.457031 6.125 -5.6875 C 6.125 -5.09375 5.972656 -4.59375 5.671875 -4.1875 C 5.378906 -3.789062 4.976562 -3.507812 4.46875 -3.34375 L 7.25 0 L 4.90625 0 L 2.4375 -3.203125 L 2.4375 0 L 0.59375 0 Z M 2.4375 -4.5 L 2.65625 -4.5 C 2.820312 -4.5 2.960938 -4.503906 3.078125 -4.515625 C 3.191406 -4.523438 3.320312 -4.546875 3.46875 -4.578125 C 3.625 -4.617188 3.75 -4.675781 3.84375 -4.75 C 3.9375 -4.820312 4.015625 -4.925781 4.078125 -5.0625 C 4.148438 -5.195312 4.1875 -5.363281 4.1875 -5.5625 C 4.1875 -5.757812 4.148438 -5.925781 4.078125 -6.0625 C 4.015625 -6.195312 3.9375 -6.300781 3.84375 -6.375 C 3.75 -6.445312 3.625 -6.503906 3.46875 -6.546875 C 3.320312 -6.585938 3.191406 -6.609375 3.078125 -6.609375 C 2.960938 -6.617188 2.820312 -6.625 2.65625 -6.625 L 2.4375 -6.625 Z M 2.4375 -4.5 "/></g></g></g><g fill="#00bf63" fill-opacity="1"><g transform="translate(57.652077, 30.0613)"><g><path d="M 0.078125 -6.46875 L 0.078125 -8.09375 L 5.765625 -8.09375 L 5.765625 -6.46875 L 3.84375 -6.46875 L 3.84375 0 L 2 0 L 2 -6.46875 Z M 0.078125 -6.46875 "/></g></g></g><g fill="#00bf63" fill-opacity="1"><g transform="translate(63.28087, 30.0613)"><g><path d="M 6.8125 -8.09375 L 6.8125 -2.875 C 6.8125 -1.882812 6.539062 -1.132812 6 -0.625 C 5.46875 -0.113281 4.679688 0.140625 3.640625 0.140625 C 2.609375 0.140625 1.820312 -0.113281 1.28125 -0.625 C 0.75 -1.132812 0.484375 -1.882812 0.484375 -2.875 L 0.484375 -8.09375 L 2.328125 -8.09375 L 2.328125 -3.421875 C 2.328125 -2.765625 2.429688 -2.304688 2.640625 -2.046875 C 2.847656 -1.796875 3.179688 -1.671875 3.640625 -1.671875 C 4.109375 -1.671875 4.445312 -1.796875 4.65625 -2.046875 C 4.863281 -2.304688 4.96875 -2.765625 4.96875 -3.421875 L 4.96875 -8.09375 Z M 6.8125 -8.09375 "/></g></g></g><g fill="#00bf63" fill-opacity="1"><g transform="translate(70.361071, 30.0613)"><g><path d="M 0.59375 -8.09375 L 3.546875 -8.09375 C 4.367188 -8.09375 5.035156 -7.878906 5.546875 -7.453125 C 6.054688 -7.023438 6.3125 -6.40625 6.3125 -5.59375 C 6.3125 -4.789062 6.050781 -4.15625 5.53125 -3.6875 C 5.019531 -3.226562 4.359375 -3 3.546875 -3 L 2.4375 -3 L 2.4375 0 L 0.59375 0 Z M 2.4375 -4.46875 L 2.953125 -4.46875 C 3.367188 -4.46875 3.707031 -4.550781 3.96875 -4.71875 C 4.226562 -4.882812 4.359375 -5.160156 4.359375 -5.546875 C 4.359375 -5.929688 4.226562 -6.207031 3.96875 -6.375 C 3.707031 -6.539062 3.367188 -6.625 2.953125 -6.625 L 2.4375 -6.625 Z M 2.4375 -4.46875 "/></g></g></g><g fill="#00bf63" fill-opacity="1"><g transform="translate(76.676341, 30.0613)"><g><path d="M 3.578125 -8.25 C 4.015625 -8.25 4.441406 -8.179688 4.859375 -8.046875 C 5.273438 -7.921875 5.585938 -7.796875 5.796875 -7.671875 L 6.078125 -7.484375 L 5.34375 -6 C 5.28125 -6.039062 5.195312 -6.09375 5.09375 -6.15625 C 4.988281 -6.21875 4.789062 -6.300781 4.5 -6.40625 C 4.21875 -6.507812 3.953125 -6.5625 3.703125 -6.5625 C 3.390625 -6.5625 3.148438 -6.492188 2.984375 -6.359375 C 2.816406 -6.234375 2.734375 -6.0625 2.734375 -5.84375 C 2.734375 -5.726562 2.769531 -5.625 2.84375 -5.53125 C 2.925781 -5.4375 3.0625 -5.332031 3.25 -5.21875 C 3.445312 -5.113281 3.613281 -5.023438 3.75 -4.953125 C 3.894531 -4.890625 4.117188 -4.796875 4.421875 -4.671875 C 4.941406 -4.453125 5.382812 -4.148438 5.75 -3.765625 C 6.125 -3.378906 6.3125 -2.945312 6.3125 -2.46875 C 6.3125 -2 6.226562 -1.585938 6.0625 -1.234375 C 5.894531 -0.890625 5.664062 -0.617188 5.375 -0.421875 C 5.09375 -0.234375 4.773438 -0.09375 4.421875 0 C 4.066406 0.09375 3.679688 0.140625 3.265625 0.140625 C 2.910156 0.140625 2.5625 0.101562 2.21875 0.03125 C 1.882812 -0.03125 1.601562 -0.113281 1.375 -0.21875 C 1.144531 -0.332031 0.9375 -0.441406 0.75 -0.546875 C 0.570312 -0.648438 0.441406 -0.738281 0.359375 -0.8125 L 0.21875 -0.921875 L 1.140625 -2.46875 C 1.222656 -2.40625 1.332031 -2.320312 1.46875 -2.21875 C 1.601562 -2.125 1.847656 -1.988281 2.203125 -1.8125 C 2.554688 -1.644531 2.863281 -1.5625 3.125 -1.5625 C 3.90625 -1.5625 4.296875 -1.828125 4.296875 -2.359375 C 4.296875 -2.460938 4.265625 -2.5625 4.203125 -2.65625 C 4.148438 -2.757812 4.050781 -2.859375 3.90625 -2.953125 C 3.769531 -3.046875 3.648438 -3.117188 3.546875 -3.171875 C 3.441406 -3.222656 3.265625 -3.304688 3.015625 -3.421875 C 2.773438 -3.535156 2.59375 -3.625 2.46875 -3.6875 C 1.976562 -3.925781 1.597656 -4.226562 1.328125 -4.59375 C 1.066406 -4.957031 0.9375 -5.347656 0.9375 -5.765625 C 0.9375 -6.492188 1.203125 -7.085938 1.734375 -7.546875 C 2.273438 -8.015625 2.890625 -8.25 3.578125 -8.25 Z M 3.578125 -8.25 "/></g></g></g><g clip-path="url(#2e384eced4)"><path fill="#f1005d" d="M 27.773438 31.777344 C 24.382812 29.480469 21.085938 27.25 17.675781 24.9375 C 23.234375 18.933594 28.757812 12.96875 34.28125 7.003906 C 34.332031 7.027344 34.382812 7.050781 34.433594 7.074219 C 32.222656 15.28125 30.011719 23.484375 27.773438 31.777344 " fill-opacity="1" fill-rule="nonzero"/></g><g clip-path="url(#c0bd155689)"><path fill="#f1005d" d="M 32.167969 7.25 C 30.378906 8.664062 28.589844 10.074219 26.800781 11.484375 C 22.484375 14.871094 18.167969 18.25 13.867188 21.65625 C 13.375 22.042969 12.976562 22.160156 12.375 21.894531 C 10.121094 20.910156 7.84375 19.988281 5.578125 19.035156 C 5.394531 18.960938 5.226562 18.859375 4.898438 18.695312 C 14.050781 14.792969 23.066406 10.945312 32.082031 7.101562 C 32.113281 7.152344 32.140625 7.203125 32.167969 7.25 " fill-opacity="1" fill-rule="nonzero"/></g><path fill="#f1005d" d="M 30.941406 9.386719 C 30.800781 9.558594 30.667969 9.738281 30.519531 9.898438 C 26.054688 14.71875 21.582031 19.539062 17.132812 24.375 C 16.839844 24.691406 16.636719 25.136719 16.511719 25.558594 C 16.007812 27.234375 15.550781 28.925781 14.921875 30.613281 C 14.699219 29.300781 14.472656 27.992188 14.253906 26.683594 C 14.078125 25.640625 13.933594 24.597656 13.738281 23.5625 C 13.640625 23.042969 13.773438 22.707031 14.207031 22.371094 C 19.664062 18.109375 25.105469 13.832031 30.550781 9.554688 C 30.652344 9.472656 30.761719 9.394531 30.867188 9.316406 C 30.890625 9.339844 30.914062 9.363281 30.941406 9.386719 " fill-opacity="1" fill-rule="nonzero"/><path fill="#f1005d" d="M 19.605469 27.207031 C 18.351562 28.574219 17.132812 29.90625 15.914062 31.238281 C 15.863281 31.210938 15.8125 31.1875 15.765625 31.160156 C 16.261719 29.375 16.757812 27.589844 17.296875 25.65625 C 18.175781 26.246094 18.984375 26.789062 19.605469 27.207031 " fill-opacity="1" fill-rule="nonzero"/></svg>